<svg width="102" height="100" viewBox="0 0 102 100" fill="none" xmlns="http://www.w3.org/2000/svg">
<path fill-rule="evenodd" clip-rule="evenodd" d="M84.7136 -35.1583C106.116 -41.2777 122.717 -16.7114 140.053 -2.91066C152.342 6.87243 164.2 17.0052 168.935 31.8875C173.616 46.6038 171.082 61.9564 165.246 76.2769C158.708 92.3221 149.788 107.314 134.655 116.006C115.369 127.084 92.0977 139.134 71.858 129.917C51.384 120.593 44.2897 95.3797 40.9553 73.3363C38.1583 54.8458 48.4174 38.6632 55.426 21.286C63.6608 0.868669 63.3546 -29.0513 84.7136 -35.1583Z" fill="#84E8F4"/>
<path opacity="0.2" fill-rule="evenodd" clip-rule="evenodd" d="M75.7728 -28.8576C97.4808 -37.0984 114.319 -4.01582 131.903 14.5692C144.368 27.7437 156.395 41.3892 161.197 61.4307C165.946 81.2486 163.375 101.923 157.456 121.208C150.824 142.816 141.777 163.005 126.428 174.71C106.866 189.628 83.2623 205.855 62.7335 193.443C41.967 180.888 34.7714 146.934 31.3894 117.248C28.5524 92.3478 38.958 70.5553 46.0668 47.154C54.4192 19.6587 54.1086 -20.6335 75.7728 -28.8576Z" fill="#84E8F4"/>
</svg>
