<svg width="83" height="100" viewBox="0 0 83 100" fill="none" xmlns="http://www.w3.org/2000/svg">
<path fill-rule="evenodd" clip-rule="evenodd" d="M28.5374 0.308733C28.4706 -16.3715 42.9656 -28.1018 54.7625 -33.8382C65.1063 -38.8679 75.7633 -29.3232 86.7492 -27.9972C95.5475 -26.9353 104.254 -30.78 112.586 -26.8593C122.736 -22.0829 133.065 -15.6588 138.755 -3.52471C145.029 9.85607 148.623 26.9647 144.803 41.8466C141.05 56.4691 127.591 60.9778 119.388 71.9297C109.67 84.9033 105.771 107.06 92.4347 111.761C78.7494 116.584 60.7866 110.957 52.8005 95.3989C44.5896 79.4028 59.7288 57.2581 55.0541 38.9377C50.7426 22.0401 28.6088 18.1308 28.5374 0.308733Z" fill="#27AE60"/>
<path opacity="0.2" fill-rule="evenodd" clip-rule="evenodd" d="M18.5374 4.30873C18.4706 -12.3715 32.9656 -24.1018 44.7625 -29.8382C55.1063 -34.8679 65.7633 -25.3232 76.7492 -23.9972C85.5475 -22.9353 94.2538 -26.78 102.586 -22.8593C112.736 -18.0829 123.065 -11.6588 128.755 0.475288C135.029 13.8561 138.623 30.9647 134.803 45.8466C131.05 60.4691 117.591 64.9778 109.388 75.9297C99.6698 88.9033 95.7714 111.06 82.4347 115.761C68.7494 120.584 50.7866 114.957 42.8005 99.3989C34.5896 83.4028 49.7288 61.2581 45.0541 42.9377C40.7426 26.0401 18.6088 22.1308 18.5374 4.30873Z" fill="#BDBDBD"/>
</svg>
