<svg width="86" height="100" viewBox="0 0 86 100" fill="none" xmlns="http://www.w3.org/2000/svg">
<path fill-rule="evenodd" clip-rule="evenodd" d="M137.434 -33.5449C149.319 -28.3349 153.061 -6.28421 153.396 10.4525C153.69 25.1274 143.519 35.5723 139.089 49.0418C135.541 59.8291 135.511 72.0576 130.078 81.3477C123.459 92.6651 115.612 103.686 105.176 107.028C93.6677 110.714 80.359 109.828 70.9873 100.275C61.7788 90.8879 62.8443 72.4392 57.6591 58.5906C51.5167 42.1856 36.9959 30.2236 37.886 11.8689C38.7994 -6.96562 48.5032 -27.8913 62.1033 -33.0504C76.0862 -38.3546 87.0304 -12.1838 101.544 -12.2791C114.93 -12.367 124.736 -39.1117 137.434 -33.5449Z" fill="#FDBC64"/>
<path opacity="0.1" fill-rule="evenodd" clip-rule="evenodd" d="M124.434 -33.5449C136.319 -28.3349 140.061 -6.28421 140.396 10.4525C140.69 25.1274 130.519 35.5723 126.089 49.0418C122.541 59.8291 122.511 72.0576 117.078 81.3477C110.459 92.6651 102.612 103.686 92.176 107.028C80.6677 110.714 67.359 109.828 57.9873 100.275C48.7788 90.8879 49.8443 72.4392 44.6591 58.5906C38.5167 42.1856 23.9959 30.2236 24.886 11.8689C25.7994 -6.96562 35.5032 -27.8913 49.1033 -33.0504C63.0862 -38.3546 74.0304 -12.1838 88.544 -12.2791C101.93 -12.367 111.736 -39.1117 124.434 -33.5449Z" fill="#FDBC64"/>
</svg>
